<?xml version="1.0" encoding="utf-8" ?><svg xmlns="http://www.w3.org/2000/svg" xmlns:xlink="http://www.w3.org/1999/xlink" width="40" height="40" viewBox="210 180 604 604"><path fill="#00C8B5" d="M366.074 190.53C373.684 190.434 381.685 190.911 389.454 190.896C422.114 190.648 454.776 190.626 487.437 190.83L660.127 190.496L750.527 190.519L777.363 190.497C781.92 190.497 789.933 190.328 794.258 190.89C795.067 191.005 795.92 191.03 796.613 191.372C795.757 229.099 796.786 269.28 796.571 307.289L651.789 307.309L607.715 307.24C600.527 307.219 590.423 306.882 583.437 307.284L583.071 308.04L583.059 321.032C583.814 354.773 582.885 389.486 583.414 423.498C577.084 423.974 559.851 423.576 552.726 423.513C541.733 423.415 522.618 424.119 512.436 423.065L512.084 423.111C508.039 422.726 497.413 423.199 492.577 423.195C475.559 423.166 458.541 423.27 441.524 423.508C441.636 418.465 441.612 413.181 441.545 408.122C441.111 375.301 442.149 342.152 441.297 309.364C441.166 308.976 440.434 307.292 440.053 307.265C431.577 306.684 422.891 307.113 414.376 307.179L336.96 307.018C328.467 306.998 306.898 307.719 299.59 306.616L298.961 306.643C291.01 307.442 278.845 307.099 270.573 307.061C256.369 306.922 242.163 306.96 227.96 307.175C227.772 279.916 227.757 252.656 227.915 225.397C227.941 214.651 227.538 201.93 227.809 191.44C230.387 189.938 351.135 190.958 366.074 190.53Z"/><path fill="#003F51" d="M366.074 190.53C373.684 190.434 381.685 190.911 389.454 190.896C422.114 190.648 454.776 190.626 487.437 190.83L660.127 190.496L750.527 190.519L777.363 190.497C781.92 190.497 789.933 190.328 794.258 190.89C772.452 191.44 748.787 191 726.776 190.993L583.727 190.963C560.058 190.958 535.206 190.511 511.67 190.967C505.84 201.998 498.634 213.065 492.117 223.795L459.896 276.781C457.622 280.484 443.04 303.817 442.088 306.831L441.967 308.425L442.04 308.799L441.297 309.364C441.166 308.976 440.434 307.292 440.053 307.265C431.577 306.684 422.891 307.113 414.376 307.179L336.96 307.018C328.467 306.998 306.898 307.719 299.59 306.616L298.961 306.643C291.01 307.442 278.845 307.099 270.573 307.061C256.369 306.922 242.163 306.96 227.96 307.175C227.772 279.916 227.757 252.656 227.915 225.397C227.941 214.651 227.538 201.93 227.809 191.44C230.387 189.938 351.135 190.958 366.074 190.53Z"/><path fill="#00C8B5" d="M366.074 190.53C367.935 190.832 368.744 190.569 369.593 191.666C369.136 192.784 368.658 193.894 368.16 194.995C362.49 203.543 357.201 212.949 351.851 221.755L318.313 276.305C311.943 286.599 306.371 296.429 299.59 306.616L298.961 306.643C291.01 307.442 278.845 307.099 270.573 307.061C256.369 306.922 242.163 306.96 227.96 307.175C227.772 279.916 227.757 252.656 227.915 225.397C227.941 214.651 227.538 201.93 227.809 191.44C230.387 189.938 351.135 190.958 366.074 190.53Z"/><path fill="#001D29" d="M227.809 191.44L274.148 267.012L287.926 289.262C290.739 293.879 295.782 302.404 298.961 306.643C291.01 307.442 278.845 307.099 270.573 307.061C256.369 306.922 242.163 306.96 227.96 307.175C227.772 279.916 227.757 252.656 227.915 225.397C227.941 214.651 227.538 201.93 227.809 191.44Z"/><path fill="#001D29" d="M368.16 194.995C369.036 194.195 369.401 193.847 370.347 193.123C375.879 198.936 383.375 213.286 387.984 220.652C400.859 240.909 413.556 261.278 426.075 281.757C430.161 288.407 434.291 295.048 438.42 301.673C439.828 303.932 440.731 306.575 441.967 308.425L442.04 308.799L441.297 309.364C441.166 308.976 440.434 307.292 440.053 307.265C431.577 306.684 422.891 307.113 414.376 307.179L336.96 307.018C328.467 306.998 306.898 307.719 299.59 306.616C306.371 296.429 311.943 286.599 318.313 276.305L351.851 221.755C357.201 212.949 362.49 203.543 368.16 194.995Z"/><path fill="#008B86" d="M725.615 306.951C736.977 290.176 749.443 268.605 760.132 251.069C772.118 231.407 785.079 211.111 796.613 191.372C795.757 229.099 796.786 269.28 796.571 307.289L651.789 307.309L607.715 307.24C600.527 307.219 590.423 306.882 583.437 307.284C585.678 304.186 588.981 298.373 591.125 294.85L606.163 270.264L638.061 218.263C643.513 209.333 649.197 200.592 654.428 191.543C663.533 206.606 672.76 221.595 682.107 236.509C696.467 260.078 710.97 283.559 725.615 306.951Z"/><path fill="#008B86" d="M442.088 306.831C443.04 303.817 457.622 280.484 459.896 276.781L492.117 223.795C498.634 213.065 505.84 201.998 511.67 190.967L582.728 306.974C563.486 306.169 539.572 306.946 519.921 306.911L467.124 306.928C458.841 306.924 450.299 306.59 442.088 306.831Z"/><path fill="#008B86" d="M512.436 423.065C534.502 388.611 555.584 352.34 577.169 317.426C579.251 319.653 580.104 320.254 583.059 321.032C583.814 354.773 582.885 389.486 583.414 423.498C577.084 423.974 559.851 423.576 552.726 423.513C541.733 423.415 522.618 424.119 512.436 423.065Z"/><path fill="#003F51" d="M442.04 308.799C446.872 317.145 452.06 325.018 457.042 333.237L500.45 404.514C504.05 410.473 508.753 417.302 512.084 423.111C508.039 422.726 497.413 423.199 492.577 423.195C475.559 423.166 458.541 423.27 441.524 423.508C441.636 418.465 441.612 413.181 441.545 408.122C441.111 375.301 442.149 342.152 441.297 309.364L442.04 308.799Z"/><path fill="#007676" d="M583.071 308.04L583.059 321.032C580.104 320.254 579.251 319.653 577.169 317.426C579.133 314.131 580.879 311.184 583.071 308.04Z"/><path fill="#003F51" d="M441.524 423.508C458.541 423.27 475.559 423.166 492.577 423.195C497.413 423.199 508.039 422.726 512.084 423.111L512.436 423.065C522.618 424.119 541.733 423.415 552.726 423.513C559.851 423.576 577.084 423.974 583.414 423.498C582.922 453.176 582.824 482.859 583.122 512.54L583.206 537.762C583.26 542.072 583.78 550.147 583.072 554.097C582.918 586.157 582.492 621.057 583.12 653.002C583.561 671.457 583.706 689.917 583.555 708.376C583.564 714.967 583.989 729.829 583.424 736.054C583.456 747.983 583.641 760.425 583.33 772.315L582.945 772.529L582.886 772.492C579.549 773.13 575.925 773.301 572.531 773.337C543.919 773.643 515.008 773.374 486.42 773.428C480.027 773.44 443.931 773.901 441.59 773.109C440.863 735.107 441.38 695.139 441.497 657.045L441.585 542.038L441.884 540.434L443.786 536.621L443.01 536.521C440.62 532.101 441.495 436.805 441.524 423.508Z"/><path fill="#4A2135" d="M441.524 423.508C458.541 423.27 475.559 423.166 492.577 423.195C497.413 423.199 508.039 422.726 512.084 423.111L512.328 424.243C526.057 444.572 539.165 468.386 552.16 489.593L572.435 522.288C575.798 527.769 580.37 534.898 583.107 540.531L496.53 540.632C478.542 540.627 459.794 540.898 441.884 540.434L443.786 536.621L443.01 536.521C440.62 532.101 441.495 436.805 441.524 423.508Z"/><path fill="#001D29" d="M441.524 423.508C458.541 423.27 475.559 423.166 492.577 423.195C497.413 423.199 508.039 422.726 512.084 423.111L512.328 424.243C505.408 434.29 497.847 447.514 491.453 458.135L453.696 520.818C452.556 522.681 444.888 535.777 443.786 536.621L443.01 536.521C440.62 532.101 441.495 436.805 441.524 423.508Z"/><path fill="#001D29" d="M583.414 423.498C582.922 453.176 582.824 482.859 583.122 512.54L583.206 537.762C583.26 542.072 583.78 550.147 583.072 554.097L582.911 541.157L535.392 618.863C528.965 629.279 521.194 643.428 514.253 653.095C513.213 654.056 513.265 654.119 511.969 654.621C509.052 653.209 496.196 630.088 493.532 625.709L443.154 543.572C442.533 542.575 442.612 542.579 441.585 542.038L441.884 540.434C459.794 540.898 478.542 540.627 496.53 540.632L583.107 540.531C580.37 534.898 575.798 527.769 572.435 522.288L552.16 489.593C539.165 468.386 526.057 444.572 512.328 424.243L512.084 423.111L512.436 423.065C522.618 424.119 541.733 423.415 552.726 423.513C559.851 423.576 577.084 423.974 583.414 423.498Z"/><path fill="#001D29" d="M441.497 657.045C456.394 656.956 471.292 656.97 486.189 657.086C495.054 657.088 503.922 656.788 512.777 657.049L512.392 657.733C515.178 663.547 523.722 676.505 527.42 682.587L560.533 736.736C566.026 745.658 571.331 754.745 576.965 763.574C578.256 765.598 581.583 771.137 582.886 772.492C579.549 773.13 575.925 773.301 572.531 773.337C543.919 773.643 515.008 773.374 486.42 773.428C480.027 773.44 443.931 773.901 441.59 773.109C440.863 735.107 441.38 695.139 441.497 657.045Z"/><path fill="#00C8B5" d="M441.497 657.045C456.394 656.956 471.292 656.97 486.189 657.086C495.054 657.088 503.922 656.788 512.777 657.049L512.392 657.733C504.817 669.089 498.174 680.887 491.136 692.544L457.253 748.006C452.049 756.443 447.201 764.893 441.59 773.109C440.863 735.107 441.38 695.139 441.497 657.045Z"/><path fill="#00C8B5" d="M512.777 657.049C534.581 656.396 561.141 656.91 583.002 657.129L583.041 708.951C583.038 714.529 582.727 731.132 583.424 736.054C583.456 747.983 583.641 760.425 583.33 772.315L582.945 772.529L582.886 772.492C581.583 771.137 578.256 765.598 576.965 763.574C571.331 754.745 566.026 745.658 560.533 736.736L527.42 682.587C523.722 676.505 515.178 663.547 512.392 657.733L512.777 657.049Z"/></svg>
